<?xml version="1.0" standalone="no"?>
<!DOCTYPE svg PUBLIC "-//W3C//DTD SVG 20010904//EN"
 "http://www.w3.org/TR/2001/REC-SVG-20010904/DTD/svg10.dtd">
<svg version="1.0" xmlns="http://www.w3.org/2000/svg"
 width="256.000000pt" height="68.000000pt" viewBox="0 0 256.000000 68.000000"
 preserveAspectRatio="xMidYMid meet">

<g transform="translate(0.000000,68.000000) scale(0.100000,-0.100000)"
fill="#000000" stroke="none">
<path d="M290 641 c-48 -15 -131 -62 -168 -96 -58 -52 -86 -116 -90 -207 -4
-66 0 -85 21 -131 68 -149 243 -218 385 -152 l52 24 25 -24 c26 -27 60 -32
100 -13 21 9 31 9 46 0 27 -17 54 -15 99 8 68 35 70 42 70 252 0 194 1 199 41
178 18 -10 19 -23 19 -204 0 -180 1 -195 21 -220 25 -32 54 -33 113 -6 51 25
66 52 66 125 l0 53 73 5 c39 2 82 7 95 12 22 7 22 6 22 -84 0 -101 15 -131 65
-131 42 0 106 38 118 71 6 16 16 29 22 29 22 -1 55 -27 77 -60 26 -38 62 -49
99 -30 15 9 24 9 32 1 16 -16 63 -14 98 4 27 14 32 14 51 0 31 -21 227 -21
268 0 25 13 32 13 64 0 113 -47 276 43 276 152 0 40 -31 86 -92 133 -59 47
-77 73 -78 111 0 40 22 54 59 35 16 -9 33 -20 36 -26 11 -17 68 -11 110 13 74
42 71 103 -6 154 -62 41 -157 45 -234 9 l-57 -26 -20 25 c-19 24 -24 25 -138
25 -83 0 -126 -4 -146 -14 -24 -13 -30 -13 -48 0 -46 32 -144 -2 -167 -58
l-12 -29 -30 31 c-51 52 -97 70 -177 70 -70 0 -113 -13 -152 -48 -15 -12 -18
-32 -18 -114 l0 -98 -76 0 c-41 0 -84 -5 -95 -10 -18 -10 -19 -7 -19 52 0 35
-5 79 -10 98 -11 41 -61 94 -103 109 -36 14 -244 12 -274 -2 -17 -8 -27 -7
-35 1 -17 17 -61 15 -102 -4 -31 -15 -37 -15 -82 0 -49 17 -150 20 -194 7z
m188 -41 c44 -20 55 -47 28 -69 -10 -9 -27 -8 -68 3 -68 18 -125 8 -174 -29
-122 -93 -85 -288 63 -331 69 -20 126 -6 148 36 23 44 75 35 75 -12 0 -28 -58
-87 -98 -98 -114 -31 -227 10 -291 107 -97 146 -34 335 134 400 47 18 134 15
183 -7z m170 8 c17 -17 17 -489 0 -506 -18 -18 -46 -14 -58 7 -6 12 -10 109
-10 246 0 137 4 234 10 246 12 21 40 25 58 7z m339 -7 c64 -40 68 -54 71 -272
4 -205 -2 -239 -36 -239 -39 0 -42 18 -42 220 0 186 -1 198 -21 216 -14 13
-36 18 -75 18 -88 0 -88 0 -94 -242 -5 -189 -7 -207 -23 -210 -44 -9 -47 6
-47 262 0 146 4 246 10 252 5 5 58 11 117 12 92 2 113 -1 140 -17z m568 -4
c21 -12 53 -42 70 -65 28 -40 30 -50 30 -127 0 -71 -3 -88 -23 -115 l-23 -31
51 -48 c45 -42 51 -53 48 -82 -5 -50 -41 -53 -68 -6 -27 45 -74 67 -143 67
l-56 0 -3 -41 c-3 -45 -24 -67 -52 -56 -14 6 -16 34 -16 260 0 140 3 257 7
260 3 4 36 7 72 7 50 0 76 -6 106 -23z m265 4 c14 -26 14 -466 0 -492 -12 -21
-40 -25 -58 -7 -17 17 -17 489 0 506 18 18 46 14 58 -7z m320 4 c6 -8 9 -23 5
-35 -6 -18 -15 -20 -86 -20 l-79 0 0 -135 0 -135 79 0 c71 0 80 -2 86 -20 12
-37 -11 -50 -91 -50 -72 0 -74 -1 -74 -25 0 -25 1 -25 79 -25 71 0 80 -2 86
-20 13 -41 -10 -50 -119 -50 -66 0 -106 4 -114 12 -7 7 -12 34 -12 60 0 40 -3
48 -19 48 -26 0 -44 25 -36 50 4 13 15 20 31 20 l24 0 0 158 c0 110 4 162 12
170 18 18 212 16 228 -3z m295 -1 c50 -24 82 -61 69 -82 -16 -25 -40 -26 -72
-4 -49 35 -113 32 -153 -7 -21 -21 -29 -39 -29 -65 0 -56 16 -83 78 -131 97
-75 113 -128 58 -192 -22 -25 -31 -28 -85 -28 -55 0 -64 3 -92 32 -21 20 -30
37 -26 47 9 23 37 31 56 18 34 -25 62 -32 82 -22 31 17 22 36 -41 85 -75 58
-103 109 -103 187 0 103 73 177 176 178 27 0 64 -7 82 -16z m-340 -199 l0 -95
-42 0 -43 0 0 89 0 90 43 4 c23 2 42 4 42 5 0 1 0 -41 0 -93z m-1714 68 c34
-13 47 -14 73 -5 18 7 35 12 39 12 4 0 7 -45 7 -100 l0 -101 -31 -17 c-18 -9
-46 -29 -63 -43 -40 -33 -83 -25 -132 22 -64 62 -68 157 -8 217 36 36 56 39
115 15z m904 -133 c11 -36 -12 -50 -80 -50 -68 0 -91 14 -80 50 6 18 15 20 80
20 65 0 74 -2 80 -20z"/>
<path d="M325 601 c-51 -13 -91 -39 -133 -86 -139 -158 -27 -408 183 -407 85
0 155 40 155 89 0 29 -25 31 -40 3 -25 -47 -117 -64 -188 -35 -141 59 -170
250 -53 348 56 47 121 56 224 31 23 -5 27 -3 27 14 0 17 -11 24 -52 37 -55 16
-76 17 -123 6z"/>
<path d="M607 604 c-4 -4 -7 -116 -7 -250 0 -208 2 -243 15 -248 9 -3 18 0 21
7 2 7 3 120 2 251 -3 226 -8 263 -31 240z"/>
<path d="M742 598 c-18 -18 -17 -471 1 -487 31 -25 37 9 37 210 l0 198 26 20
c43 34 150 26 176 -13 4 -6 8 -96 8 -199 0 -190 7 -231 35 -221 23 9 22 392
-1 435 -29 58 -135 86 -208 55 -29 -12 -36 -12 -48 0 -11 11 -17 12 -26 2z"/>
<path d="M1393 604 c-16 -7 -19 -494 -3 -494 6 0 13 0 18 0 4 0 9 21 12 47 l5
48 66 -1 c85 -1 125 -18 155 -65 16 -26 29 -36 39 -33 20 8 19 23 -5 62 -17
28 -62 63 -95 76 -5 2 0 14 12 27 56 61 67 144 29 226 -33 69 -84 103 -163
109 -32 2 -64 1 -70 -2z m165 -88 c32 -32 36 -42 40 -98 2 -50 -1 -70 -17 -96
-28 -44 -78 -73 -121 -70 l-35 3 -3 140 c-1 76 0 145 3 153 4 11 17 13 51 9
36 -4 55 -13 82 -41z"/>
<path d="M1440 405 l0 -135 36 0 c47 0 99 50 110 104 15 82 -41 166 -112 166
l-34 0 0 -135z m60 -25 c0 -20 -7 -45 -15 -56 -13 -17 -14 -12 -14 56 0 68 1
73 14 56 8 -11 15 -36 15 -56z"/>
<path d="M1777 604 c-10 -10 -9 -492 1 -498 4 -2 13 -1 20 3 9 6 12 68 10 251
-3 230 -8 267 -31 244z"/>
<path d="M1927 604 c-4 -4 -7 -81 -7 -170 l0 -163 -27 -3 c-20 -2 -28 -9 -28
-23 0 -14 8 -21 28 -23 26 -3 27 -6 27 -57 0 -65 4 -67 125 -63 72 3 80 5 80
23 0 18 -8 21 -80 25 l-80 5 0 30 0 30 80 5 c72 4 80 7 80 25 0 18 -8 21 -80
25 l-80 5 0 140 0 140 80 5 c72 4 80 7 80 25 0 18 -8 20 -95 23 -53 1 -99 0
-103 -4z"/>
<path d="M2309 601 c-103 -33 -148 -145 -99 -247 13 -26 42 -58 75 -83 69 -52
83 -76 59 -102 -20 -23 -63 -25 -90 -4 -42 32 -74 7 -35 -29 45 -41 135 -38
166 7 8 12 15 36 15 53 0 27 -11 42 -75 99 -57 51 -77 77 -85 107 -14 48 0 95
36 129 36 34 119 34 164 0 24 -17 35 -20 43 -12 40 40 -100 105 -174 82z"/>
<path d="M1144 335 c-10 -25 6 -35 60 -35 57 0 83 15 65 37 -16 19 -118 18
-125 -2z"/>
</g>
</svg>
